<svg width="49" height="86" viewBox="0 0 49 86" fill="none" xmlns="http://www.w3.org/2000/svg">
<g filter="url(#filter0_b_2106_7)">
<path d="M2.64925 0.463293C3.16975 3.64108 4.88387 7.15933 7.9286 8.59168C8.31734 8.77692 8.71 8.96999 9.10657 9.17088C9.25267 9.24394 9.35964 9.35482 9.42748 9.50354C9.64663 9.9862 9.62707 10.5067 9.36877 11.065C9.2855 11.2424 9.14395 11.3859 8.9675 11.472C8.79104 11.5581 8.59023 11.5816 8.39822 11.5386C4.43773 10.6345 2.14832 7.86377 0.250257 4.47465C-0.540276 3.06187 0.700312 0.917252 1.77262 0.111066C1.84852 0.0538965 1.93791 0.017302 2.03211 0.00481956C2.12631 -0.00766284 2.22214 0.00439733 2.31032 0.0398249C2.39849 0.0752524 2.47602 0.132851 2.5354 0.207041C2.59478 0.28123 2.634 0.369498 2.64925 0.463293Z" fill="url(#paint0_linear_2106_7)"/>
<path d="M7.45898 19.3147C7.292 19.2834 7.15242 19.2038 7.04023 19.076C6.52365 18.4811 6.38798 17.795 6.63323 17.0175C7.80989 13.2553 10.1841 10.2197 13.7558 7.91069C14.472 7.44889 15.4347 7.09276 16.1979 7.66414C17.1215 8.35292 16.738 9.56611 15.9044 10.1531C12.9066 12.2586 10.8598 14.6615 9.40009 18.2385C9.03744 19.1255 8.3904 19.4843 7.45898 19.3147Z" fill="url(#paint1_linear_2106_7)"/>
<path d="M12.2256 31.7245C8.29255 26.9265 8.04208 19.4752 12.1943 14.5207C15.6226 10.4349 19.9979 8.81344 25.3203 9.65615C27.0997 9.94054 28.8059 10.7859 30.4392 12.1921C39.6177 20.1157 45.2884 29.9113 47.4513 41.5788C47.9287 44.1487 48.1844 46.7146 48.2183 49.2767C48.414 63.3236 43.586 75.4673 33.7344 85.7077C33.4213 86.0338 33.3143 85.9764 33.4135 85.5355C35.8999 74.6429 34.9502 64.0946 30.5644 53.8907C27.4884 46.7342 22.7113 40.5404 16.2331 35.3093C14.125 33.6082 12.7892 32.4133 12.2256 31.7245ZM37.0883 72.8087C37.13 72.8113 37.1535 72.7931 37.1587 72.7539C38.2754 64.8043 37.6505 57.0881 35.2841 49.6054C34.5875 47.393 33.6365 44.9862 32.4312 42.385C28.6194 34.1587 22.6395 27.1692 14.5385 22.8917C14.1394 22.683 13.7323 22.6021 13.3175 22.6491C13.2083 22.661 13.1029 22.6965 13.0087 22.7532C12.9144 22.8098 12.8335 22.8863 12.7714 22.9773C12.7094 23.0684 12.6676 23.1718 12.6491 23.2807C12.6305 23.3895 12.6356 23.5011 12.664 23.6079C13.204 25.6377 14.1367 27.4444 15.4621 29.0281C18.1572 32.245 21.0546 35.5624 24.1541 38.9802C26.3535 41.404 27.9737 43.4208 29.0147 45.0305C30.9767 48.0674 32.5499 51.2387 33.7344 54.5443C35.8399 60.4198 36.937 66.4858 37.0257 72.7422C37.0257 72.7839 37.0465 72.8061 37.0883 72.8087Z" fill="url(#paint2_linear_2106_7)"/>
<path d="M37.0257 72.7422C36.937 66.4858 35.8399 60.4198 33.7344 54.5443C32.5499 51.2387 30.9767 48.0674 29.0147 45.0305C27.9737 43.4207 26.3535 41.404 24.1541 38.9802C21.0546 35.5624 18.1572 32.245 15.4621 29.0281C14.1368 27.4444 13.204 25.6377 12.664 23.6079C12.6356 23.5011 12.6305 23.3895 12.6491 23.2807C12.6676 23.1718 12.7094 23.0684 12.7714 22.9773C12.8335 22.8863 12.9144 22.8098 13.0087 22.7531C13.1029 22.6965 13.2083 22.661 13.3175 22.649C13.7324 22.6021 14.1394 22.683 14.5385 22.8917C22.6395 27.1692 28.6194 34.1587 32.4312 42.385C33.6366 44.9862 34.5875 47.393 35.2841 49.6054C37.6505 57.0881 38.2754 64.8042 37.1587 72.7539C37.1535 72.7931 37.13 72.8113 37.0883 72.8087C37.0465 72.8061 37.0257 72.7839 37.0257 72.7422Z" fill="url(#paint3_linear_2106_7)"/>
</g>
<defs>
<filter id="filter0_b_2106_7" x="-12" y="-11.9999" width="72.2241" height="109.916" filterUnits="userSpaceOnUse" color-interpolation-filters="sRGB">
<feFlood flood-opacity="0" result="BackgroundImageFix"/>
<feGaussianBlur in="BackgroundImageFix" stdDeviation="6"/>
<feComposite in2="SourceAlpha" operator="in" result="effect1_backgroundBlur_2106_7"/>
<feBlend mode="normal" in="SourceGraphic" in2="effect1_backgroundBlur_2106_7" result="shape"/>
</filter>
<linearGradient id="paint0_linear_2106_7" x1="-2.52642e-07" y1="5.7798" x2="9.57837" y2="5.7798" gradientUnits="userSpaceOnUse">
<stop stop-color="#D3040C" stop-opacity="0.6"/>
<stop offset="1" stop-color="#D3040C" stop-opacity="0.3"/>
</linearGradient>
<linearGradient id="paint1_linear_2106_7" x1="6.5148" y1="13.3624" x2="16.7338" y2="13.3624" gradientUnits="userSpaceOnUse">
<stop stop-color="#D3040C" stop-opacity="0.6"/>
<stop offset="1" stop-color="#D3040C" stop-opacity="0.3"/>
</linearGradient>
<linearGradient id="paint2_linear_2106_7" x1="9.17706" y1="47.6779" x2="48.2241" y2="47.6779" gradientUnits="userSpaceOnUse">
<stop stop-color="#D3040C" stop-opacity="0.6"/>
<stop offset="1" stop-color="#D3040C" stop-opacity="0.3"/>
</linearGradient>
<linearGradient id="paint3_linear_2106_7" x1="12.6382" y1="47.7225" x2="37.6957" y2="47.7225" gradientUnits="userSpaceOnUse">
<stop stop-color="white"/>
<stop offset="1" stop-color="white" stop-opacity="0"/>
</linearGradient>
</defs>
</svg>
