<svg width="114" height="127" viewBox="0 0 114 127" fill="none" xmlns="http://www.w3.org/2000/svg">
<path d="M25.7272 18.2139L27.552 17.0046C32.8452 13.8287 38.5042 12.2753 44.5287 12.3443C62.1298 12.543 76.4775 26.9769 76.138 44.7198C75.9992 51.9204 73.6521 58.4226 69.0966 64.2267C69.0548 64.2816 69.0526 64.3375 69.0902 64.3942C70.9309 67.1745 72.8782 70.1156 74.932 73.2175C76.0519 74.9101 76.6077 76.7179 76.5992 78.6411C76.5707 84.66 71.1428 89.1476 65.2349 88.0196C63.4181 87.6735 61.8396 86.8743 60.4993 85.6221C59.8783 85.0417 59.1147 84.059 58.2087 82.6738C54.9454 77.6903 51.8008 72.9386 48.775 68.4187C46.0802 64.3906 46.4907 59.364 49.9235 55.979C50.7731 55.1429 51.7854 54.6099 52.6602 53.8235C54.7917 51.9074 56.1317 49.6353 56.6802 47.0072C57.4835 43.169 56.7496 39.7148 54.4786 36.6446C52.5434 34.0273 49.9511 32.3993 46.7017 31.7605C36.3644 29.7292 28.2357 40.2508 32.7457 49.7371C33.0558 50.3874 33.4136 51.0376 33.8189 51.6878C34.6127 52.9602 35.0594 54.3698 35.159 55.9168C35.5351 61.7953 30.6112 66.6584 24.7218 66.0821C20.8056 65.6989 18.2908 63.3483 16.4863 60.009C12.2334 52.1405 11.2166 44.0936 13.436 35.8682C15.3775 28.6743 19.4746 22.7895 25.7272 18.2139Z" fill="url(#paint0_linear_103_152)"/>
<path d="M87.1819 108.16L86.3626 108.703C84.7402 109.613 83.0709 110.05 81.3547 110.015C75.3744 109.895 70.9305 104.44 72.1198 98.5633C72.8545 94.9271 75.6388 91.9846 79.267 91.1397C85.4552 89.6983 91.3454 94.4698 91.036 100.951C90.8998 103.806 89.6151 106.209 87.1819 108.16Z" fill="url(#paint1_linear_103_152)"/>
<defs>
<linearGradient id="paint0_linear_103_152" x1="-35.7454" y1="37.8748" x2="68.0164" y2="117.082" gradientUnits="userSpaceOnUse">
<stop stop-color="#6BBF78"/>
<stop offset="1" stop-color="#6BBF78" stop-opacity="0"/>
</linearGradient>
<linearGradient id="paint1_linear_103_152" x1="58.1826" y1="99.533" x2="81.3125" y2="119.991" gradientUnits="userSpaceOnUse">
<stop stop-color="#6BBF78"/>
<stop offset="1" stop-color="#6BBF78" stop-opacity="0"/>
</linearGradient>
</defs>
</svg>
