<svg width="132" height="144" viewBox="0 0 132 144" fill="none" xmlns="http://www.w3.org/2000/svg">
<g filter="url(#filter0_b_103_155)">
<path d="M3.53429 39.787C6.88629 43.0998 11.9441 45.7879 16.7808 44.8616C17.4004 44.7462 18.0313 44.6366 18.6736 44.5329C18.9094 44.4936 19.1315 44.5327 19.3398 44.6503C20.0148 45.0329 20.4397 45.6658 20.6147 46.5489C20.6689 46.8305 20.6249 47.1223 20.4902 47.3761C20.3555 47.6299 20.1381 47.8306 19.8738 47.945C14.4082 50.2849 9.31303 48.9768 4.14872 46.5999C1.99675 45.6085 1.61854 42.0022 2.19353 40.1248C2.23415 39.9918 2.30842 39.8716 2.40917 39.7757C2.50991 39.6798 2.63371 39.6116 2.76857 39.5776C2.90343 39.5436 3.04478 39.545 3.17893 39.5817C3.31308 39.6184 3.43549 39.6891 3.53429 39.787Z" fill="url(#paint0_linear_103_155)"/>
<path d="M25.4573 57.9569C25.2327 58.0636 24.999 58.0896 24.7561 58.0349C23.6326 57.7756 22.8812 57.0803 22.5021 55.949C20.6556 50.4833 20.8519 44.8465 23.0911 39.0386C23.5412 37.8755 24.3739 36.6251 25.7691 36.6443C27.4552 36.6643 28.0458 38.4303 27.5646 39.8428C25.8295 44.9156 25.476 49.5217 26.828 55.0119C27.1625 56.374 26.7056 57.3556 25.4573 57.9569Z" fill="url(#paint1_linear_103_155)"/>
<path d="M41.7832 68.5401C32.9974 66.2479 26.2855 57.6447 26.9341 48.206C27.4738 40.4189 31.256 34.7328 38.2806 31.1477C40.6314 29.9523 43.3786 29.4837 46.5223 29.7418C64.2072 31.217 79.3523 37.9279 91.9575 49.8744C94.7352 52.5049 97.247 55.3216 99.493 58.3246C111.819 74.7809 116.56 93.3099 113.717 113.912C113.627 114.567 113.451 114.591 113.189 113.984C106.753 98.9517 96.5478 87.2853 82.5719 78.9849C72.7698 73.1634 61.7833 69.9459 49.6125 69.3324C45.6529 69.1342 43.0432 68.8701 41.7832 68.5401ZM106.581 95.7578C106.632 95.7249 106.645 95.6831 106.617 95.6323C101.094 85.2623 93.7112 76.6681 84.4682 69.8497C81.7389 67.831 78.5412 65.8012 74.8751 63.7605C63.2812 57.3064 50.1862 54.1827 36.9157 56.095C36.2636 56.1916 35.7122 56.4463 35.2617 56.8591C35.1427 56.9672 35.0486 57.1 34.9858 57.2482C34.923 57.3964 34.8931 57.5566 34.898 57.7177C34.903 57.8789 34.9427 58.0373 35.0144 58.1821C35.0862 58.3268 35.1883 58.4546 35.3137 58.5565C37.7005 60.4939 40.36 61.8291 43.2921 62.5623C49.2515 64.0492 55.5366 65.4808 62.1476 66.8572C66.8374 67.8322 70.4913 68.8241 73.1093 69.833C78.0461 71.738 82.6384 74.1367 86.8863 77.0292C94.4368 82.1702 100.958 88.4048 106.449 95.733C106.485 95.7824 106.529 95.7906 106.581 95.7578Z" fill="url(#paint2_linear_103_155)"/>
<path d="M106.449 95.7329C100.958 88.4047 94.4368 82.1701 86.8863 77.0291C82.6384 74.1367 78.046 71.738 73.1093 69.833C70.4913 68.8241 66.8374 67.8322 62.1476 66.8572C55.5366 65.4808 49.2514 64.0491 43.2921 62.5623C40.3599 61.8291 37.7005 60.4938 35.3137 58.5565C35.1882 58.4545 35.0861 58.3268 35.0144 58.182C34.9427 58.0373 34.903 57.8789 34.898 57.7177C34.8931 57.5565 34.923 57.3964 34.9858 57.2482C35.0485 57.1 35.1427 56.9672 35.2617 56.859C35.7122 56.4463 36.2636 56.1916 36.9157 56.0949C50.1861 54.1827 63.2812 57.3064 74.8751 63.7604C78.5412 65.8012 81.7389 67.8309 84.4682 69.8496C93.7112 76.6681 101.094 85.2623 106.617 95.6323C106.645 95.6831 106.632 95.7249 106.581 95.7578C106.529 95.7906 106.485 95.7823 106.449 95.7329Z" fill="url(#paint3_linear_103_155)"/>
</g>
<defs>
<filter id="filter0_b_103_155" x="-10.0476" y="17.673" width="136.564" height="108.749" filterUnits="userSpaceOnUse" color-interpolation-filters="sRGB">
<feFlood flood-opacity="0" result="BackgroundImageFix"/>
<feGaussianBlur in="BackgroundImageFix" stdDeviation="6"/>
<feComposite in2="SourceAlpha" operator="in" result="effect1_backgroundBlur_103_155"/>
<feBlend mode="normal" in="SourceGraphic" in2="effect1_backgroundBlur_103_155" result="shape"/>
</filter>
<linearGradient id="paint0_linear_103_155" x1="4.97624" y1="48.36" x2="16.3124" y2="40.1133" gradientUnits="userSpaceOnUse">
<stop stop-color="#6BBF78"/>
<stop offset="1" stop-color="#6BBF78" stop-opacity="0"/>
</linearGradient>
<linearGradient id="paint1_linear_103_155" x1="19.215" y1="51.7251" x2="31.3093" y2="42.9268" gradientUnits="userSpaceOnUse">
<stop stop-color="#6BBF78"/>
<stop offset="1" stop-color="#6BBF78" stop-opacity="0"/>
</linearGradient>
<linearGradient id="paint2_linear_103_155" x1="51.9105" y1="90.0458" x2="98.1232" y2="56.4274" gradientUnits="userSpaceOnUse">
<stop stop-color="#6BBF78"/>
<stop offset="1" stop-color="#6BBF78" stop-opacity="0"/>
</linearGradient>
<linearGradient id="paint3_linear_103_155" x1="56.0452" y1="87.1188" x2="85.7012" y2="65.5449" gradientUnits="userSpaceOnUse">
<stop stop-color="white"/>
<stop offset="1" stop-color="white" stop-opacity="0"/>
</linearGradient>
</defs>
</svg>
