<svg width="49" height="83" viewBox="0 0 49 83" fill="none" xmlns="http://www.w3.org/2000/svg">
<path d="M23.3724 0H25.0302C29.7002 0.209441 33.9223 1.59604 37.6966 4.15981C48.7244 11.6481 51.7436 26.7617 44.107 37.8201C41.0073 42.3075 36.8056 45.4303 31.502 47.1886C31.4525 47.2057 31.4278 47.2401 31.4278 47.2917C31.4268 49.8168 31.4257 52.4879 31.4246 55.3052C31.4235 56.8422 31.0181 58.2159 30.2083 59.4263C27.6724 63.214 22.3687 63.7762 19.1111 60.5928C18.109 59.6143 17.4469 58.4495 17.1247 57.0983C16.9754 56.4721 16.9045 55.5323 16.912 54.2789C16.9367 49.7679 16.9394 45.4529 16.9201 41.3339C16.9039 37.6638 19.2658 34.6624 22.8488 33.9616C23.7349 33.7892 24.5969 33.8762 25.4781 33.7457C27.6252 33.4278 29.4215 32.554 30.8672 31.1245C32.9799 29.0376 33.9615 26.5501 33.8122 23.6619C33.6855 21.2002 32.7301 19.0881 30.9461 17.3256C25.2703 11.719 15.7375 14.9605 14.6162 22.8355C14.54 23.3757 14.4938 23.9358 14.4777 24.5158C14.4465 25.6511 14.1388 26.7278 13.5545 27.746C11.3328 31.6142 6.19026 32.6244 2.71355 29.7969C0.401645 27.9168 -0.202511 25.381 0.0552623 22.5181C0.662103 15.7719 3.38644 10.2669 8.22828 6.00289C12.4633 2.27377 17.5113 0.27281 23.3724 0Z" fill="url(#paint0_linear_103_98)"/>
<path d="M24.5405 82.4873H23.7961C22.3913 82.3831 21.1545 81.961 20.0858 81.221C16.361 78.6433 15.8374 73.3412 19.0467 70.1287C21.0315 68.1407 24.0201 67.4479 26.6639 68.4323C31.1733 70.111 32.8955 75.5871 29.9891 79.5487C28.7089 81.2941 26.8926 82.2736 24.5405 82.4873Z" fill="url(#paint1_linear_103_98)"/>
<defs>
<linearGradient id="paint0_linear_103_98" x1="-23.6576" y1="-13.304" x2="8.70953" y2="80.1024" gradientUnits="userSpaceOnUse">
<stop stop-color="#001AFF"/>
<stop offset="1" stop-color="#001AFF" stop-opacity="0"/>
</linearGradient>
<linearGradient id="paint1_linear_103_98" x1="9.84299" y1="64.9106" x2="15.8862" y2="87.5004" gradientUnits="userSpaceOnUse">
<stop stop-color="#001AFF"/>
<stop offset="1" stop-color="#001AFF" stop-opacity="0"/>
</linearGradient>
</defs>
</svg>
